<svg width="688" height="409" viewBox="0 0 688 409" fill="none" xmlns="http://www.w3.org/2000/svg">
<g id="clock 1">
<g id="full-computer">
<path id="Vector" d="M343.904 408.551C439.948 408.551 517.807 398.466 517.807 386.024C517.807 373.583 439.948 363.497 343.904 363.497C247.859 363.497 170 373.583 170 386.024C170 398.466 247.859 408.551 343.904 408.551Z" fill="#3F3D56"/>
<path id="Vector_2" opacity="0.1" d="M293.035 370.634C296.84 367.41 303.48 364.051 303.48 364.051L308.321 334.622L378.326 334.684L383.167 363.696C388.811 366.673 392.307 368.954 394.353 370.705C397.462 370.029 400.859 367.52 383.167 358.189L378.326 327.342L308.321 329.115L303.481 358.544C303.481 358.544 283.455 368.675 293.035 370.634Z" fill="black"/>
<g id="computer">
<g id="monitor">
<path id="Vector_3" d="M308.321 329.115L303.48 358.544C303.48 358.544 279.649 370.599 296.405 370.954C313.162 371.308 392.104 370.954 392.104 370.954C392.104 370.954 407.371 370.954 383.167 358.189L378.326 327.342L308.321 329.115Z" fill="#18181F"/>
<path id="Vector_4" d="M489.559 124H196.343C190.219 124 185.254 128.727 185.254 134.559V322.634C185.254 328.465 190.219 333.193 196.343 333.193H489.559C495.684 333.193 500.648 328.465 500.648 322.634V134.559C500.648 128.727 495.684 124 489.559 124Z" fill="#04010F"/>
</g>
<path id="display" d="M494.874 139.606H191.528V304.018H494.874V139.606Z" fill="url(#paint0_linear)"/>
</g>
<path id="Vector_5" d="M342.951 131.978C343.98 131.978 344.813 131.184 344.813 130.205C344.813 129.226 343.98 128.432 342.951 128.432C341.923 128.432 341.089 129.226 341.089 130.205C341.089 131.184 341.923 131.978 342.951 131.978Z" fill="#F2F2F2"/>
<path id="Vector_6" d="M500.648 304.296V322.634C500.649 324.02 500.362 325.393 499.805 326.675C499.247 327.956 498.431 329.12 497.401 330.1C496.371 331.081 495.149 331.859 493.803 332.389C492.458 332.92 491.016 333.193 489.559 333.193H196.343C194.887 333.193 193.445 332.92 192.1 332.389C190.754 331.859 189.531 331.081 188.502 330.1C187.472 329.12 186.655 327.956 186.098 326.675C185.541 325.393 185.254 324.02 185.254 322.634V304.296H500.648Z" fill="#010011"/>
<path id="keyboard" d="M425.244 390.1V393.646H224.911V390.809L225.187 390.1L230.124 377.336H421.148L425.244 390.1Z" fill="#5C5A8A"/>
<path id="mouse" d="M502.339 386.629C501.974 388.115 500.596 389.682 497.483 391.164C486.312 396.482 463.598 389.746 463.598 389.746C463.598 389.746 446.097 386.909 446.097 379.463C446.588 379.143 447.101 378.853 447.631 378.595C452.327 376.229 467.9 370.39 495.511 378.842C497.545 379.45 499.362 380.583 500.76 382.117C501.879 383.364 502.756 384.946 502.339 386.629Z" fill="#465980"/>
<path id="Vector_7" opacity="0.1" d="M502.339 386.629C488.666 391.618 476.478 391.99 463.97 383.718C457.662 379.548 451.932 378.516 447.631 378.595C452.327 376.229 467.9 370.39 495.511 378.842C497.545 379.45 499.362 380.583 500.76 382.117C501.879 383.364 502.756 384.946 502.339 386.629Z" fill="black"/>
<path id="Vector_8" d="M485.195 383.718C487.869 383.718 490.036 383.083 490.036 382.3C490.036 381.516 487.869 380.881 485.195 380.881C482.522 380.881 480.354 381.516 480.354 382.3C480.354 383.083 482.522 383.718 485.195 383.718Z" fill="#F2F2F2"/>
<path id="Vector_9" d="M342.951 325.569C346.859 325.569 350.026 322.553 350.026 318.833C350.026 315.112 346.859 312.096 342.951 312.096C339.044 312.096 335.876 315.112 335.876 318.833C335.876 322.553 339.044 325.569 342.951 325.569Z" fill="#F2F2F2"/>
<path id="Vector_10" opacity="0.1" d="M425.244 390.1V393.646H224.911V390.809L225.187 390.1H425.244Z" fill="black"/>
<g id="three-dot">
<path id="Vector_11" opacity="0.4" d="M455.712 145.695H445.88V155.057H455.712V145.695Z" fill="#28DD50"/>
<path id="Vector_12" opacity="0.8" d="M469.845 145.695H460.013V155.057H469.845V145.695Z" fill="#28DD50"/>
<path id="Vector_13" d="M483.979 145.695H474.147V155.057H483.979V145.695Z" fill="#28DD50"/>
</g>
</g>
<g id="boii">
<path id="Vector_14" d="M83.5333 399.248C124.697 399.248 158.067 394.25 158.067 388.084C158.067 381.919 124.697 376.921 83.5333 376.921C42.3697 376.921 9 381.919 9 388.084C9 394.25 42.3697 399.248 83.5333 399.248Z" fill="#A099F8"/>
<path id="Vector_15" d="M82.752 373.851C109.563 373.851 131.298 353.155 131.298 327.626C131.298 302.097 109.563 281.402 82.752 281.402C55.9411 281.402 34.2065 302.097 34.2065 327.626C34.2065 353.155 55.9411 373.851 82.752 373.851Z" fill="#2F2E41"/>
<path id="Vector_16" d="M75.378 363.904H60.63V389.064H75.378V363.904Z" fill="#2F2E41"/>
<path id="Vector_17" d="M104.874 363.904H90.126V389.064H104.874V363.904Z" fill="#2F2E41"/>
<path id="Vector_18" d="M72.92 393.745C79.7076 393.745 85.21 391.78 85.21 389.356C85.21 386.933 79.7076 384.968 72.92 384.968C66.1324 384.968 60.63 386.933 60.63 389.356C60.63 391.78 66.1324 393.745 72.92 393.745Z" fill="#2F2E41"/>
<path id="Vector_19" d="M102.416 393.16C109.204 393.16 114.706 391.195 114.706 388.771C114.706 386.348 109.204 384.383 102.416 384.383C95.6284 384.383 90.126 386.348 90.126 388.771C90.126 391.195 95.6284 393.16 102.416 393.16Z" fill="#2F2E41"/>
<path id="Vector_20" d="M84.2097 330.949C93.3729 330.949 100.801 323.876 100.801 315.151C100.801 306.425 93.3729 299.352 84.2097 299.352C75.0464 299.352 67.6182 306.425 67.6182 315.151C67.6182 323.876 75.0464 330.949 84.2097 330.949Z" fill="white"/>
<path id="eye" d="M83.981 321.19C87.0354 321.19 89.5115 318.832 89.5115 315.924C89.5115 313.015 87.0354 310.658 83.981 310.658C80.9266 310.658 78.4505 313.015 78.4505 315.924C78.4505 318.832 80.9266 321.19 83.981 321.19Z" fill="#3F3D56"/>
<path id="cap" d="M35.6612 284.639C31.7414 267.923 44.2715 251.033 63.648 246.913C83.0245 242.793 101.91 253.004 105.83 269.72C109.75 286.435 96.9081 292.6 77.5316 296.72C58.1551 300.84 39.581 301.354 35.6612 284.639Z" fill="#6C63FF"/>
<path id="left-hand" d="M128.283 318.407C140.607 313.384 149.255 306.326 147.599 302.642C145.944 298.958 134.61 300.043 122.286 305.066C109.962 310.089 101.314 317.147 102.97 320.831C104.626 324.515 115.959 323.429 128.283 318.407Z" fill="#2F2E41"/>
<path id="Vector_21" d="M37.337 349.418C49.6611 344.396 58.3094 337.338 56.6535 333.654C54.9975 329.97 43.6645 331.055 31.3404 336.077C19.0163 341.1 10.368 348.158 12.0239 351.842C13.6798 355.526 25.0129 354.441 37.337 349.418Z" fill="#2F2E41"/>
<path id="Vector_22" d="M111.019 341.084C111.019 345.608 98.7852 354.542 85.21 354.542C71.6348 354.542 58.7865 346.193 58.7865 341.669C58.7865 337.145 71.6348 338.158 85.21 338.158C98.7852 338.158 111.019 336.56 111.019 341.084Z" fill="white"/>
</g>
<g id="plant">
<g id="left-leaf">
<path id="Vector_23" d="M601.797 386.45C601.797 341.268 635.136 304.707 676.338 304.707Z" fill="#46802C"/>
<path id="Vector_24" d="M559.202 309.665C559.202 352.107 578.253 386.45 601.797 386.45Z" fill="#46802C"/>
</g>
<g id="right-leaf">
<path id="Vector_25" d="M535 305.615C535 350.295 564.876 386.45 601.797 386.45Z" fill="#4DBA27"/>
<path id="Vector_26" d="M601.797 386.45C601.797 328.717 640.332 282 687.955 282Z" fill="#4DBA27"/>
</g>
<path id="Vector_27" d="M587.744 387.02C587.744 387.02 597.217 386.746 600.072 384.839C602.927 382.932 614.644 380.654 615.352 383.713C616.06 386.772 629.588 398.927 618.893 399.008C608.198 399.089 594.043 397.445 591.194 395.817C588.344 394.188 587.744 387.02 587.744 387.02Z" fill="#A8A8A8"/>
<path id="Vector_28" opacity="0.2" d="M619.084 397.943C608.389 398.024 594.234 396.38 591.385 394.752C589.215 393.511 588.35 389.062 588.061 387.008C587.86 387.017 587.744 387.02 587.744 387.02C587.744 387.02 588.344 394.188 591.194 395.816C594.043 397.445 608.198 399.089 618.893 399.008C621.98 398.984 623.047 397.954 622.988 396.428C622.559 397.35 621.382 397.926 619.084 397.943Z" fill="black"/>
</g>
</g>
<defs>
<linearGradient id="paint0_linear" x1="494.874" y1="139.606" x2="197.426" y2="314.072" gradientUnits="userSpaceOnUse">
<stop stop-color="#6A62CF"/>
<stop offset="1" stop-color="#68C4A8"/>
</linearGradient>
</defs>
</svg>
